<svg width="50" height="50" viewBox="0 0 50 50" fill="none" xmlns="http://www.w3.org/2000/svg">
<path d="M25 0L26.8682 12.7106L32.3896 1.11692L30.4388 13.815L39.1225 4.36844L33.5261 15.9258L44.6006 9.46563L35.8558 18.8553L48.3372 15.9556L37.2209 22.3433L50 23.2616L37.5 26.0797L49.4416 30.7346L36.6686 29.7329L46.7113 37.7106L34.8004 32.9779L42.052 43.5696L32.0613 35.5264L35.8775 47.7912L28.6948 37.1521L28.7366 50L25 37.7106L21.2635 50L21.3053 37.1521L14.1225 47.7912L17.9388 35.5264L7.94802 43.5696L15.1997 32.9779L3.28867 37.7106L13.3315 29.7329L0.558452 30.7346L12.5 26.0797L0 23.2616L12.7793 22.3433L1.66289 15.9556L14.1444 18.8553L5.39942 9.46563L16.474 15.9258L10.8775 4.36844L19.5613 13.815L17.6105 1.11692L23.1319 12.7106L25 0Z" fill="#472DC8"/>
</svg>
