<svg width="43" height="43" viewBox="0 0 43 43" fill="none" xmlns="http://www.w3.org/2000/svg">
<rect width="43" height="43" fill="#472DC8"/>
<path d="M2.04761 11.4513C4.62217 9.06216 7.02636 7.00271 10.4304 5.90758C12.1252 5.3623 13.8482 4.81107 15.6018 4.48081C15.9117 4.42243 18.1483 3.81563 18.3702 4.25209C18.5889 4.68236 18.6567 5.49004 18.5695 5.96203C18.2331 7.78179 16.1462 9.13458 14.9595 10.3621C12.6214 12.7807 9.70292 14.7229 7.52906 17.2782C6.17924 18.8648 4.43952 21.527 4.43952 23.6714C4.43952 25.1932 8.44187 23.2141 8.81361 23.0506C14.1858 20.6879 18.8494 17.4628 23.3976 13.8474C25.2568 12.3695 27.299 10.9075 29.621 10.1988C30.8299 9.82977 31.1708 10.5964 31.8357 11.5493C33.6468 14.1448 32.3688 17.3787 30.4626 19.5762C27.7414 22.7134 24.0159 24.6115 20.8728 27.2764C19.3512 28.5666 17.9526 30.0081 16.5098 31.3825C15.5191 32.3261 14.3551 33.4613 14.0514 34.8459C13.7761 36.1014 15.4044 36.7702 16.4212 36.6975C20.5223 36.4041 23.5671 33.5076 26.6975 31.23C28.1394 30.181 29.7005 29.4715 31.3928 28.8884C33.1784 28.273 34.9979 27.8185 36.8632 27.5052C37.5902 27.383 39.6886 26.7923 40.4621 27.2547C41.0762 27.6218 40.9624 28.5841 40.905 29.0953C40.6511 31.3591 39.5563 33.3819 38.347 35.2816C37.1686 37.1329 35.7783 38.8041 34.139 40.2698" stroke="black" stroke-width="4" stroke-linecap="round"/>
</svg>
